<svg width="160" height="160" viewBox="0 0 160 160" fill="none" xmlns="http://www.w3.org/2000/svg">
<g clip-path="url(#clip0_120_73789)">
<rect width="160" height="160" fill="white"/>
<path d="M74.6766 153C72.9432 148.6 71.1432 144.533 69.2766 140.8C67.5432 136.933 65.3432 132.8 62.6766 128.4C60.0099 124 56.6766 118.867 52.6766 113C48.6766 107.133 43.6099 100 37.4766 91.6C29.6099 80.8 24.0099 71.5333 20.6766 63.8C17.3432 56.0667 15.6766 48.5333 15.6766 41.2C15.6766 35.3333 17.1432 30 20.0766 25.2C23.1432 20.2667 27.1432 16.4 32.0766 13.6C37.1432 10.6667 42.6099 9.19999 48.4766 9.19999C54.7432 9.19999 60.5432 10.8 65.8766 14C71.3432 17.2 75.8099 22.0667 79.2766 28.6C82.8766 22.0667 87.4099 17.2 92.8766 14C98.3432 10.8 104.21 9.19999 110.477 9.19999C116.21 9.19999 121.543 10.6667 126.477 13.6C131.543 16.4 135.61 20.2667 138.677 25.2C141.743 30 143.277 35.3333 143.277 41.2C143.277 45.8667 142.61 50.6667 141.277 55.6C140.077 60.4 137.877 65.7333 134.677 71.6C131.477 77.3333 127.077 84.0667 121.477 91.8C115.343 100.333 110.21 107.6 106.077 113.6C101.943 119.467 98.5432 124.6 95.8766 129C93.3432 133.4 91.1432 137.467 89.2766 141.2C87.4099 144.933 85.6766 148.867 84.0766 153H74.6766ZM79.2766 135.6C81.8099 130.533 85.2099 124.667 89.4766 118C93.8766 111.333 99.0099 103.933 104.877 95.8C110.743 87.6667 115.543 80.6667 119.277 74.8C123.01 68.9333 125.677 64.2667 127.277 60.8C130.477 53.7333 132.077 47.2 132.077 41.2C132.077 37.3333 131.077 33.8667 129.077 30.8C127.077 27.6 124.41 25.0667 121.077 23.2C117.877 21.3333 114.343 20.4 110.477 20.4C104.743 20.4 99.5432 22.8 94.8766 27.6C90.2099 32.2667 86.7432 38.7333 84.4766 47H74.2766C71.7432 37.9333 68.1432 31.2667 63.4766 27C58.9432 22.6 53.9432 20.4 48.4766 20.4C44.7432 20.4 41.2099 21.3333 37.8766 23.2C34.5432 25.0667 31.8766 27.6 29.8766 30.8C27.8766 33.8667 26.8766 37.3333 26.8766 41.2C26.8766 46.8 28.4099 53.2 31.4766 60.4C34.4099 67.2 41.7432 78.6 53.4766 94.6C59.3432 102.333 64.4099 109.667 68.6766 116.6C72.9432 123.4 76.4766 129.733 79.2766 135.6Z" fill="#FFD700"/>
</g>
<defs>
<clipPath id="clip0_120_73789">
<rect width="160" height="160" fill="white"/>
</clipPath>
</defs>
</svg>
